<?xml version="1.0" encoding="UTF-8" standalone="no"?>
<!-- Created with Inkscape (http://www.inkscape.org/) -->

<svg
   width="210mm"
   height="297mm"
   viewBox="0 0 210 297"
   version="1.1"
   id="svg1"
   xml:space="preserve"
   inkscape:version="1.3.2 (091e20e, 2023-11-25)"
   sodipodi:docname="drawing.svg"
   xmlns:inkscape="http://www.inkscape.org/namespaces/inkscape"
   xmlns:sodipodi="http://sodipodi.sourceforge.net/DTD/sodipodi-0.dtd"
   xmlns="http://www.w3.org/2000/svg"
   xmlns:svg="http://www.w3.org/2000/svg"><sodipodi:namedview
     id="namedview1"
     pagecolor="#505050"
     bordercolor="#ffffff"
     borderopacity="1"
     inkscape:showpageshadow="0"
     inkscape:pageopacity="0"
     inkscape:pagecheckerboard="1"
     inkscape:deskcolor="#505050"
     inkscape:document-units="mm"
     inkscape:zoom="0.28724725"
     inkscape:cx="520.45755"
     inkscape:cy="536.1235"
     inkscape:window-width="1280"
     inkscape:window-height="656"
     inkscape:window-x="0"
     inkscape:window-y="0"
     inkscape:window-maximized="1"
     inkscape:current-layer="layer1" /><defs
     id="defs1"><style
       class="style-fonts"
       id="style1">
      @font-face {
        font-family: &quot;Virgil&quot;;
        src: url(&quot;https://excalidraw.com/Virgil.woff2&quot;);
      }
      @font-face {
        font-family: &quot;Cascadia&quot;;
        src: url(&quot;https://excalidraw.com/Cascadia.woff2&quot;);
      }
      @font-face {
        font-family: &quot;Assistant&quot;;
        src: url(&quot;https://excalidraw.com/Assistant-Regular.woff2&quot;);
      }
    </style></defs><g
     inkscape:label="Layer 1"
     inkscape:groupmode="layer"
     id="layer1"><!-- svg-source:excalidraw --><g
       style="fill:none;stroke:#1307ff;stroke-opacity:1"
       id="g1"
       transform="matrix(0.26458333,0,0,0.26458333,56.742177,92.332641)"
       inkscape:export-filename="freeze_spiral.png"
       inkscape:export-xdpi="184.77393"
       inkscape:export-ydpi="184.77393"><g
         id="SVGRepo_bgCarrier"
         stroke-width="0"
         style="fill:none;stroke:#1307ff;stroke-opacity:1" /><g
         id="SVGRepo_tracerCarrier"
         stroke-linecap="round"
         stroke-linejoin="round"
         style="fill:none;stroke:#1307ff;stroke-opacity:1" /><g
         id="SVGRepo_iconCarrier"
         style="fill:none;stroke:#1307ff;stroke-opacity:1"><path
           d="M 165.865,345 C 67.4268,338.855 27.5031,77.085 213.503,69.1662 405.382,60.997 340.806,357.21 197.786,260.179 147.022,225.723 192.405,137.4 241.736,158.785"
           stroke="#000000"
           stroke-opacity="0.9"
           stroke-width="16"
           stroke-linecap="round"
           stroke-linejoin="round"
           id="path1"
           style="fill:none;stroke:#1307ff;stroke-opacity:1" /></g></g><g
       style="fill:none;stroke:#d7f000;stroke-opacity:1"
       id="g5"
       transform="matrix(0.26458333,0,0,0.26458333,-92.876,87.997321)"
       inkscape:export-filename="freeze_spiral_black.png"
       inkscape:export-xdpi="184.77393"
       inkscape:export-ydpi="184.77393"><g
         id="g2"
         stroke-width="0"
         style="fill:none;stroke:#d7f000;stroke-opacity:1" /><g
         id="g3"
         stroke-linecap="round"
         stroke-linejoin="round"
         style="fill:none;stroke:#d7f000;stroke-opacity:1" /><g
         id="g4"
         style="fill:none;stroke:#d7f000;stroke-opacity:1"><path
           d="M 165.865,345 C 67.4268,338.855 27.5031,77.085 213.503,69.1662 405.382,60.997 340.806,357.21 197.786,260.179 147.022,225.723 192.405,137.4 241.736,158.785"
           stroke="#000000"
           stroke-opacity="0.9"
           stroke-width="16"
           stroke-linecap="round"
           stroke-linejoin="round"
           id="path3"
           style="fill:none;stroke:#d7f000;stroke-opacity:1" /></g></g><g
       id="SVGRepo_bgCarrier-8"
       stroke-width="0"
       transform="matrix(5.5562499,0,0,4.7624999,227.02566,84.883118)" /><g
       id="SVGRepo_tracerCarrier-1"
       stroke-linecap="round"
       stroke-linejoin="round"
       transform="matrix(5.5562499,0,0,4.7624999,227.02566,84.883118)" /><g
       id="SVGRepo_iconCarrier-6"
       transform="matrix(5.5562499,0,0,4.7624999,227.02566,84.883118)"
       style="fill:#ff0000;fill-opacity:0.37077841"
       inkscape:export-filename="nuke-warning.png"
       inkscape:export-xdpi="95.01387"
       inkscape:export-ydpi="95.01387"><title
         id="title1">fire-shield</title><path
         d="m 3.769,2.219 c 0,12.51 2.325,21.765 12.301,27.524 9.74,-5.624 12.333,-14.98 12.333,-27.524 -8.027,1.434 -16.13,1.605 -24.634,0 z M 15.418,26.291 C 11.777,26.164 5.389,15.548 10.473,9.738 v 0 c -1.002,5.844 2.052,6.275 3.534,4.025 1.415,-2.147 -1.625,-6.169 3.935,-7.828 -2.974,3.633 2.465,13.228 3.773,6.499 3.858,7.819 -2.473,13.99 -6.298,13.857 z m 4.318,-4.831 c 0,2.845 -1.681,5.152 -3.755,5.152 -2.074,0 -3.755,-2.306 -3.755,-5.152 0,-2.846 1.681,-5.152 3.755,-5.152 2.074,0 3.755,2.306 3.755,5.152 z"
         id="path1-0"
         style="fill:#ff0000;fill-opacity:0.37077841" /></g></g></svg>
